<svg xmlns="http://www.w3.org/2000/svg" xmlns:xlink="http://www.w3.org/1999/xlink" width="2380" zoomAndPan="magnify" viewBox="0 0 1784.88 863.999991" height="1152" preserveAspectRatio="xMidYMid meet" version="1.0"><defs><filter x="0%" y="0%" width="100%" height="100%" id="d295222a22"><feColorMatrix values="0 0 0 0 1 0 0 0 0 1 0 0 0 0 1 0 0 0 1 0" color-interpolation-filters="sRGB"/></filter><g/><clipPath id="6a8da164db"><path d="M 809.03125 402.515625 L 1045.195312 402.515625 L 1045.195312 638.679688 L 809.03125 638.679688 Z M 809.03125 402.515625 " clip-rule="nonzero"/></clipPath><clipPath id="3d7b472bd0"><path d="M 927.113281 402.515625 C 861.898438 402.515625 809.03125 455.382812 809.03125 520.597656 C 809.03125 585.8125 861.898438 638.679688 927.113281 638.679688 C 992.328125 638.679688 1045.195312 585.8125 1045.195312 520.597656 C 1045.195312 455.382812 992.328125 402.515625 927.113281 402.515625 Z M 927.113281 402.515625 " clip-rule="nonzero"/></clipPath><clipPath id="f381b15b7a"><path d="M 0.03125 0.515625 L 236.195312 0.515625 L 236.195312 236.679688 L 0.03125 236.679688 Z M 0.03125 0.515625 " clip-rule="nonzero"/></clipPath><clipPath id="ce38df2efe"><path d="M 118.113281 0.515625 C 52.898438 0.515625 0.03125 53.382812 0.03125 118.597656 C 0.03125 183.8125 52.898438 236.679688 118.113281 236.679688 C 183.328125 236.679688 236.195312 183.8125 236.195312 118.597656 C 236.195312 53.382812 183.328125 0.515625 118.113281 0.515625 Z M 118.113281 0.515625 " clip-rule="nonzero"/></clipPath><linearGradient x1="128" gradientTransform="matrix(0.922521, 0, 0, 0.922521, 0.0299295, 0.513944)" y1="0.000000335319" x2="128" gradientUnits="userSpaceOnUse" y2="255.999998" id="3a4524c8f5"><stop stop-opacity="1" stop-color="rgb(100%, 23.919678%, 49.798584%)" offset="0"/><stop stop-opacity="1" stop-color="rgb(100%, 24.017334%, 49.897766%)" offset="0.5"/><stop stop-opacity="1" stop-color="rgb(100%, 24.211121%, 50.099182%)" offset="1"/></linearGradient><clipPath id="19d8f1bf48"><rect x="0" width="237" y="0" height="237"/></clipPath><clipPath id="21033f6a5e"><path d="M 0 0.0273438 L 1784.761719 0.0273438 L 1784.761719 863.96875 L 0 863.96875 Z M 0 0.0273438 " clip-rule="nonzero"/></clipPath><clipPath id="a4e376edc1"><path d="M 0 0.0273438 L 1784.761719 0.0273438 L 1784.761719 863.96875 L 0 863.96875 Z M 0 0.0273438 " clip-rule="nonzero"/></clipPath><clipPath id="4bf4dca911"><path d="M 0 0.0273438 L 1784.761719 0.0273438 L 1784.761719 863.96875 L 0 863.96875 Z M 0 0.0273438 " clip-rule="nonzero"/></clipPath><clipPath id="8fa9110d71"><path d="M 0 0.0273438 L 1784.761719 0.0273438 L 1784.761719 863.96875 L 0 863.96875 Z M 0 0.0273438 " clip-rule="nonzero"/></clipPath><linearGradient x1="206.55499" gradientTransform="matrix(4.319369, 0, 0, 4.31963, -0.0751707, 171.999403)" y1="-39.811358" x2="206.55499" gradientUnits="userSpaceOnUse" y2="160.192309" id="ff65a64121"><stop stop-opacity="1" stop-color="rgb(100%, 23.919678%, 49.798584%)" offset="0"/><stop stop-opacity="1" stop-color="rgb(100%, 24.005127%, 49.885559%)" offset="0.5"/><stop stop-opacity="1" stop-color="rgb(100%, 24.198914%, 50.086975%)" offset="1"/></linearGradient><clipPath id="ac3da483e0"><rect x="0" width="1785" y="0" height="864"/></clipPath><clipPath id="07a01b50e7"><path d="M 0 0.0273438 L 1784.761719 0.0273438 L 1784.761719 863.96875 L 0 863.96875 Z M 0 0.0273438 " clip-rule="nonzero"/></clipPath><clipPath id="dfb9b63712"><rect x="0" width="1785" y="0" height="864"/></clipPath><clipPath id="67ce998b28"><rect x="0" width="1785" y="0" height="864"/></clipPath><mask id="9de9dd81f7"><g filter="url(#d295222a22)"><g transform="matrix(1, 0, 0, 1, 0, 0.000000000000083031)"><g clip-path="url(#67ce998b28)"><g clip-path="url(#07a01b50e7)"><g transform="matrix(1, 0, 0, 1, 0, 0.000000000000083031)"><g clip-path="url(#dfb9b63712)"><g fill="#000000" fill-opacity="1"><g transform="translate(0.0675023, 621.260259)"><g><path d="M 345.453125 0 L 248.875 0 L 248.875 -119.09375 L 201.46875 -32 L 163.546875 -32 L 115.546875 -119.09375 L 115.546875 0 L 19.546875 0 L 19.546875 -296.265625 L 105.46875 -296.265625 L 182.5 -141.625 L 259.53125 -296.265625 L 345.453125 -296.265625 Z M 345.453125 0 "/></g></g></g><g fill="#000000" fill-opacity="1"><g transform="translate(361.478275, 621.260259)"><g><path d="M 271.984375 -118.515625 C 271.984375 -114.160156 271.585938 -109.613281 270.796875 -104.875 C 270.003906 -100.132812 269.210938 -95.59375 268.421875 -91.25 L 113.171875 -91.25 C 119.097656 -75.050781 129.367188 -66.953125 143.984375 -66.953125 C 155.441406 -66.953125 163.34375 -72.484375 167.6875 -83.546875 L 263.09375 -67.546875 C 254.394531 -44.640625 239.578125 -26.863281 218.640625 -14.21875 C 197.710938 -1.582031 172.429688 4.734375 142.796875 4.734375 C 101.710938 4.734375 70.007812 -6.023438 47.6875 -27.546875 C 25.375 -49.078125 14.21875 -79.398438 14.21875 -118.515625 C 14.21875 -158.015625 25.375 -188.429688 47.6875 -209.765625 C 70.007812 -231.097656 101.710938 -241.765625 142.796875 -241.765625 C 183.878906 -241.765625 215.679688 -231.097656 238.203125 -209.765625 C 260.722656 -188.429688 271.984375 -158.015625 271.984375 -118.515625 Z M 173.015625 -140.4375 C 165.117188 -160.582031 155.046875 -170.65625 142.796875 -170.65625 C 126.210938 -170.65625 115.550781 -160.582031 110.8125 -140.4375 Z M 173.015625 -140.4375 "/></g></g></g><g fill="#000000" fill-opacity="1"><g transform="translate(647.052293, 621.260259)"><g><path d="M 116.140625 -296.265625 L 116.140625 0 L 19.546875 0 L 19.546875 -296.265625 Z M 116.140625 -296.265625 "/></g></g></g><g fill="#000000" fill-opacity="1"><g transform="translate(782.137121, 621.260259)"><g><path d="M 142.796875 4.734375 C 101.710938 4.734375 70.007812 -6.023438 47.6875 -27.546875 C 25.375 -49.078125 14.21875 -79.398438 14.21875 -118.515625 C 14.21875 -158.015625 25.375 -188.429688 47.6875 -209.765625 C 70.007812 -231.097656 101.710938 -241.765625 142.796875 -241.765625 C 183.878906 -241.765625 215.679688 -231.097656 238.203125 -209.765625 C 260.722656 -188.429688 271.984375 -158.015625 271.984375 -118.515625 C 271.984375 -79.398438 260.722656 -49.078125 238.203125 -27.546875 C 215.679688 -6.023438 183.878906 4.734375 142.796875 4.734375 Z M 142.796875 -72.890625 C 153.859375 -72.890625 162.351562 -76.835938 168.28125 -84.734375 C 174.207031 -92.628906 177.171875 -103.890625 177.171875 -118.515625 C 177.171875 -149.328125 165.710938 -164.734375 142.796875 -164.734375 C 120.285156 -164.734375 109.03125 -149.328125 109.03125 -118.515625 C 109.03125 -103.890625 111.894531 -92.628906 117.625 -84.734375 C 123.351562 -76.835938 131.742188 -72.890625 142.796875 -72.890625 Z M 142.796875 -72.890625 "/></g></g></g><g fill="#000000" fill-opacity="1"><g transform="translate(1067.71114, 621.260259)"><g><path d="M 271.984375 -296.265625 L 271.984375 0 L 175.390625 0 L 175.390625 -33.1875 C 161.171875 -7.90625 141.023438 4.734375 114.953125 4.734375 C 82.554688 4.734375 57.664062 -6.023438 40.28125 -27.546875 C 22.90625 -49.078125 14.21875 -79.398438 14.21875 -118.515625 C 14.21875 -158.015625 22.90625 -188.429688 40.28125 -209.765625 C 57.664062 -231.097656 82.554688 -241.765625 114.953125 -241.765625 C 141.421875 -241.765625 161.566406 -229.316406 175.390625 -204.421875 L 175.390625 -296.265625 Z M 142.796875 -72.890625 C 153.460938 -72.890625 161.5625 -76.835938 167.09375 -84.734375 C 172.625 -92.628906 175.390625 -103.890625 175.390625 -118.515625 C 175.390625 -149.328125 164.523438 -164.734375 142.796875 -164.734375 C 120.285156 -164.734375 109.03125 -149.328125 109.03125 -118.515625 C 109.03125 -103.890625 111.894531 -92.628906 117.625 -84.734375 C 123.351562 -76.835938 131.742188 -72.890625 142.796875 -72.890625 Z M 142.796875 -72.890625 "/></g></g></g><g fill="#000000" fill-opacity="1"><g transform="translate(1358.617376, 621.260259)"><g><path d="M 67.546875 -253.015625 C 52.140625 -253.015625 40.285156 -256.367188 31.984375 -263.078125 C 23.691406 -269.796875 19.546875 -279.28125 19.546875 -291.53125 C 19.546875 -303.78125 23.691406 -313.257812 31.984375 -319.96875 C 40.285156 -326.6875 52.140625 -330.046875 67.546875 -330.046875 C 82.953125 -330.046875 94.898438 -326.6875 103.390625 -319.96875 C 111.890625 -313.257812 116.140625 -303.78125 116.140625 -291.53125 C 116.140625 -279.28125 111.890625 -269.796875 103.390625 -263.078125 C 94.898438 -256.367188 82.953125 -253.015625 67.546875 -253.015625 Z M 116.140625 -237.015625 L 116.140625 0 L 19.546875 0 L 19.546875 -237.015625 Z M 116.140625 -237.015625 "/></g></g></g><g fill="#000000" fill-opacity="1"><g transform="translate(1493.702338, 621.260259)"><g><path d="M 271.984375 -237.015625 L 271.984375 0 L 175.390625 0 L 175.390625 -33.1875 C 161.171875 -7.90625 141.023438 4.734375 114.953125 4.734375 C 82.554688 4.734375 57.664062 -6.023438 40.28125 -27.546875 C 22.90625 -49.078125 14.21875 -79.398438 14.21875 -118.515625 C 14.21875 -158.015625 22.90625 -188.429688 40.28125 -209.765625 C 57.664062 -231.097656 82.554688 -241.765625 114.953125 -241.765625 C 141.421875 -241.765625 161.566406 -229.316406 175.390625 -204.421875 L 175.390625 -237.015625 Z M 142.796875 -72.890625 C 153.460938 -72.890625 161.5625 -76.835938 167.09375 -84.734375 C 172.625 -92.628906 175.390625 -103.890625 175.390625 -118.515625 C 175.390625 -149.328125 164.523438 -164.734375 142.796875 -164.734375 C 120.285156 -164.734375 109.03125 -149.328125 109.03125 -118.515625 C 109.03125 -103.890625 111.894531 -92.628906 117.625 -84.734375 C 123.351562 -76.835938 131.742188 -72.890625 142.796875 -72.890625 Z M 142.796875 -72.890625 "/></g></g></g></g></g></g></g></g></g></mask><clipPath id="6a2b26b207"><path d="M 0 0.0273438 L 1784.761719 0.0273438 L 1784.761719 863.96875 L 0 863.96875 Z M 0 0.0273438 " clip-rule="nonzero"/></clipPath><clipPath id="8e812774a3"><rect x="0" width="1785" y="0" height="864"/></clipPath><clipPath id="ea2bd9b052"><rect x="0" width="1785" y="0" height="864"/></clipPath><clipPath id="91ac23b493"><rect x="0" width="1785" y="0" height="864"/></clipPath></defs><g clip-path="url(#6a8da164db)"><g clip-path="url(#3d7b472bd0)"><g transform="matrix(1, 0, 0, 1, 809, 402)"><g clip-path="url(#19d8f1bf48)"><g clip-path="url(#f381b15b7a)"><g clip-path="url(#ce38df2efe)"><path fill="url(#3a4524c8f5)" d="M 0.03125 0.515625 L 0.03125 236.679688 L 236.195312 236.679688 L 236.195312 0.515625 Z M 0.03125 0.515625 " fill-rule="nonzero"/></g></g></g></g></g></g><g clip-path="url(#21033f6a5e)"><g transform="matrix(1, 0, 0, 1, 0, 0.000000000000083031)"><g clip-path="url(#91ac23b493)"><g clip-path="url(#a4e376edc1)"><g transform="matrix(1, 0, 0, 1, 0, 0.000000000000083031)"><g clip-path="url(#ea2bd9b052)"><g clip-path="url(#4bf4dca911)"><g mask="url(#9de9dd81f7)"><g transform="matrix(1, 0, 0, 1, 0, 0.000000000000083031)"><g clip-path="url(#8e812774a3)"><g clip-path="url(#6a2b26b207)"><path fill="url(#ff65a64121)" d="M 0 0.0273438 L 0 863.972656 L 1784.761719 863.972656 L 1784.761719 0.0273438 Z M 0 0.0273438 " fill-rule="nonzero"/></g></g></g></g></g></g></g></g></g></g></g><path fill="#ffffff" d="M 945.183594 567.421875 C 941.902344 571.289062 937.546875 574.445312 932.410156 576.410156 C 932.101562 562.808594 930.917969 545.089844 929.582031 526.457031 C 952.765625 527.625 956.636719 553.921875 945.183594 567.421875 Z M 894.367188 569.964844 C 872.996094 555.6875 874.992188 527.523438 886.464844 513.703125 C 894.183594 504.40625 907.808594 496.058594 918.878906 489.679688 C 919.480469 496.371094 920.160156 503.042969 920.867188 509.515625 C 915.253906 510.199219 910.054688 511.953125 905.9375 514.820312 C 892.988281 523.84375 887.492188 538.363281 897.636719 551.066406 C 898.632812 552.316406 900.652344 551.429688 900.421875 549.851562 C 899.324219 542.277344 900.867188 529.441406 922.828125 526.769531 C 924.3125 539.425781 925.671875 550.421875 926.367188 558.003906 C 926.945312 564.296875 927.523438 571.089844 927.6875 577.816406 C 918.140625 579.914062 906.542969 578.097656 894.367188 569.964844 Z M 926.265625 424.226562 C 931.972656 397.191406 948.082031 394.667969 953.035156 409.292969 C 956.722656 420.1875 963.875 439.5 925.425781 462.386719 C 924.703125 445.46875 924.714844 431.574219 926.265625 424.226562 Z M 960.625 524.445312 C 953.667969 514.945312 940.742188 509.722656 928.335938 509.230469 C 927.753906 501.128906 927.183594 493.039062 926.683594 485.214844 C 929.960938 483.328125 932.644531 481.71875 934.355469 480.4375 C 942.109375 474.636719 960.421875 463.945312 963.40625 438.039062 C 966.390625 412.132812 955.5 394.785156 949.992188 390.894531 C 936.222656 381.164062 922.945312 401.011719 918.664062 421.421875 C 916.324219 432.585938 916.226562 449.046875 917.199219 466.964844 C 916.691406 467.226562 916.183594 467.492188 915.664062 467.761719 C 861.453125 495.460938 857.835938 528.597656 865.40625 547.976562 C 872.339844 565.722656 897.917969 586.398438 927.734375 581.808594 C 927.6875 602.90625 922.707031 622.21875 899.824219 621.886719 C 899.824219 621.886719 898.371094 621.808594 896.195312 621.277344 C 901.503906 619.820312 905.621094 615.410156 906.269531 609.78125 C 907.132812 602.304688 901.542969 595.519531 893.789062 594.625 C 886.03125 593.730469 879.042969 599.066406 878.183594 606.542969 C 877.832031 609.574219 878.546875 612.496094 880.03125 614.953125 C 882.554688 619.726562 887.929688 624.304688 899.058594 625.589844 C 924.726562 628.546875 930.707031 604.574219 931.875 595.671875 C 932.355469 592.027344 932.53125 586.96875 932.480469 580.867188 C 933.664062 580.578125 934.851562 580.257812 936.042969 579.886719 C 969.316406 569.546875 972.273438 540.359375 960.625 524.445312 " fill-opacity="1" fill-rule="nonzero"/></svg>